# xmcd
# 
# Track frame offsets:
#     150
#     37453
#     61653
#     121053
#     162230
# 
# Disc length: 2822
# 
# Revision: 2
# Processed by: cddbd v1.5.2PL0 Copyright (c) Steve Scherf et al.
# Submitted via: BonkEnc v1.0.6
# 
DISCID=3c0b0405
DTITLE=Baptiste Trotignon and David El-Malek - Fool Time
DYEAR=2007
DGENRE=Jazz
TTITLE0=Al Admat Israel
TTITLE1=Sunday The 13th
TTITLE2=Massada
TTITLE3=The Great Nieces
TTITLE4=Soukha
EXTD=YEAR: 2007
EXTT0=
EXTT1=
EXTT2=
EXTT3=
EXTT4=
PLAYORDER=
